<svg width="18" height="18" viewBox="0 0 18 18" fill="none" xmlns="http://www.w3.org/2000/svg">
<path d="M15.1875 2.8125H2.8125C2.51413 2.8125 2.22798 2.93103 2.017 3.142C1.80603 3.35298 1.6875 3.63913 1.6875 3.9375V12.9375C1.6875 13.2359 1.80603 13.522 2.017 13.733C2.22798 13.944 2.51413 14.0625 2.8125 14.0625H7.06148L8.02336 15.7458C8.12178 15.9179 8.26394 16.061 8.43545 16.1605C8.60696 16.26 8.80172 16.3124 9 16.3124C9.19828 16.3124 9.39304 16.26 9.56455 16.1605C9.73606 16.061 9.87822 15.9179 9.97664 15.7458L10.9385 14.0625H15.1875C15.4859 14.0625 15.772 13.944 15.983 13.733C16.194 13.522 16.3125 13.2359 16.3125 12.9375V3.9375C16.3125 3.63913 16.194 3.35298 15.983 3.142C15.772 2.93103 15.4859 2.8125 15.1875 2.8125ZM11.25 10.125H6.75C6.60082 10.125 6.45774 10.0657 6.35225 9.96025C6.24676 9.85476 6.1875 9.71168 6.1875 9.5625C6.1875 9.41332 6.24676 9.27024 6.35225 9.16475C6.45774 9.05926 6.60082 9 6.75 9H11.25C11.3992 9 11.5423 9.05926 11.6477 9.16475C11.7532 9.27024 11.8125 9.41332 11.8125 9.5625C11.8125 9.71168 11.7532 9.85476 11.6477 9.96025C11.5423 10.0657 11.3992 10.125 11.25 10.125ZM11.25 7.875H6.75C6.60082 7.875 6.45774 7.81574 6.35225 7.71025C6.24676 7.60476 6.1875 7.46168 6.1875 7.3125C6.1875 7.16332 6.24676 7.02024 6.35225 6.91475C6.45774 6.80926 6.60082 6.75 6.75 6.75H11.25C11.3992 6.75 11.5423 6.80926 11.6477 6.91475C11.7532 7.02024 11.8125 7.16332 11.8125 7.3125C11.8125 7.46168 11.7532 7.60476 11.6477 7.71025C11.5423 7.81574 11.3992 7.875 11.25 7.875Z" fill="white" fill-opacity="0.9"/>
</svg>
