<svg width="13" height="18" viewBox="0 0 13 18" fill="none" xmlns="http://www.w3.org/2000/svg">
<path d="M12.8573 9C12.8571 7.99076 12.6191 6.99578 12.1625 6.0957C11.706 5.19562 11.0438 4.41578 10.2296 3.81937L9.72822 1.0567C9.67456 0.7603 9.51855 0.49215 9.28739 0.29903C9.05623 0.105909 8.76461 7.76751e-05 8.46339 0H4.39411C4.09289 7.76751e-05 3.80127 0.105909 3.57011 0.29903C3.33896 0.49215 3.18294 0.7603 3.12929 1.0567L2.62786 3.81937C1.81347 4.41558 1.15111 5.19538 0.694529 6.0955C0.237946 6.99562 0 7.9907 0 9C0 10.0093 0.237946 11.0044 0.694529 11.9045C1.15111 12.8046 1.81347 13.5844 2.62786 14.1806L3.12929 16.9433C3.18294 17.2397 3.33896 17.5078 3.57011 17.701C3.80127 17.8941 4.09289 17.9999 4.39411 18H8.46339C8.76461 17.9999 9.05623 17.8941 9.28739 17.701C9.51855 17.5078 9.67456 17.2397 9.72822 16.9433L10.2296 14.1806C11.0438 13.5842 11.706 12.8044 12.1625 11.9043C12.6191 11.0042 12.8571 10.0092 12.8573 9ZM4.39411 1.28571H8.46339L8.77759 3.01741C7.26815 2.42279 5.58935 2.42279 4.07991 3.01741L4.39411 1.28571ZM1.28589 9C1.28589 7.98284 1.58752 6.98852 2.15262 6.14278C2.71773 5.29704 3.52093 4.63787 4.46067 4.24862C5.4004 3.85937 6.43446 3.75752 7.43207 3.95596C8.42969 4.1544 9.34606 4.64421 10.0653 5.36345C10.7845 6.08269 11.2744 6.99906 11.4728 7.99668C11.6712 8.99429 11.5694 10.0284 11.1801 10.9681C10.7909 11.9078 10.1317 12.711 9.28597 13.2761C8.44023 13.8412 7.44591 14.1429 6.42875 14.1429C5.06524 14.1414 3.758 13.5991 2.79385 12.6349C1.8297 11.6708 1.28738 10.3635 1.28589 9ZM8.46339 16.7143H4.39411L4.07991 14.9826C5.58935 15.5772 7.26815 15.5772 8.77759 14.9826L8.46339 16.7143ZM5.78589 9V5.78571C5.78589 5.61522 5.85362 5.4517 5.97418 5.33115C6.09474 5.21059 6.25825 5.14286 6.42875 5.14286C6.59925 5.14286 6.76276 5.21059 6.88332 5.33115C7.00388 5.4517 7.07161 5.61522 7.07161 5.78571V8.35714H9.64304C9.81353 8.35714 9.97705 8.42487 10.0976 8.54543C10.2182 8.66599 10.2859 8.8295 10.2859 9C10.2859 9.1705 10.2182 9.33401 10.0976 9.45457C9.97705 9.57513 9.81353 9.64286 9.64304 9.64286H6.42875C6.25825 9.64286 6.09474 9.57513 5.97418 9.45457C5.85362 9.33401 5.78589 9.1705 5.78589 9Z" fill="white" fill-opacity="0.9"/>
</svg>
