<svg width="15" height="16" viewBox="0 0 15 16" fill="none" xmlns="http://www.w3.org/2000/svg">
<path d="M14.2666 3.5817L7.97924 0.141512C7.81125 0.0486893 7.62246 0 7.43053 0C7.2386 0 7.04981 0.0486893 6.88181 0.141512L0.594442 3.58313C0.414887 3.68138 0.265001 3.82603 0.160436 4.00198C0.055872 4.17793 0.000464592 4.37872 0 4.5834V11.4166C0.000464592 11.6213 0.055872 11.8221 0.160436 11.998C0.265001 12.174 0.414887 12.3186 0.594442 12.4169L6.88181 15.8585C7.04981 15.9513 7.2386 16 7.43053 16C7.62246 16 7.81125 15.9513 7.97924 15.8585L14.2666 12.4169C14.4462 12.3186 14.5961 12.174 14.7006 11.998C14.8052 11.8221 14.8606 11.6213 14.8611 11.4166V4.58411C14.861 4.37907 14.8058 4.17783 14.7012 4.00147C14.5966 3.82511 14.4465 3.68012 14.2666 3.5817ZM7.43053 1.14178L13.1706 4.28546L11.0436 5.45005L5.30283 2.30637L7.43053 1.14178ZM7.43053 7.42915L1.69045 4.28546L4.11251 2.9594L9.8526 6.10308L7.43053 7.42915ZM1.14316 5.28573L6.85895 8.41369V14.5432L1.14316 11.4173V5.28573ZM13.7179 11.4145L8.00211 14.5432V8.41655L10.2884 7.16551V9.71546C10.2884 9.86706 10.3486 10.0124 10.4558 10.1196C10.563 10.2268 10.7084 10.287 10.86 10.287C11.0116 10.287 11.157 10.2268 11.2642 10.1196C11.3714 10.0124 11.4316 9.86706 11.4316 9.71546V6.53963L13.7179 5.28573V11.4138V11.4145Z" fill="white"/>
</svg>
