<svg width="16" height="16" viewBox="0 0 16 16" fill="none" xmlns="http://www.w3.org/2000/svg">
<path d="M15.6528 7.70379L8.29639 0.347417C8.18674 0.236882 8.0562 0.149247 7.91238 0.0896063C7.76855 0.0299654 7.61431 -0.000491442 7.45861 5.99633e-06H0.592605C0.435438 5.99633e-06 0.284708 0.0624405 0.173574 0.173574C0.0624405 0.284708 5.99633e-06 0.435438 5.99633e-06 0.592605V7.45861C-0.000491442 7.61431 0.0299654 7.76855 0.0896063 7.91238C0.149247 8.0562 0.236882 8.18674 0.347417 8.29639L7.70379 15.6528C7.81385 15.7629 7.94452 15.8502 8.08833 15.9098C8.23215 15.9693 8.38629 16 8.54195 16C8.69762 16 8.85176 15.9693 8.99557 15.9098C9.13938 15.8502 9.27005 15.7629 9.38011 15.6528L15.6528 9.38011C15.7629 9.27005 15.8502 9.13938 15.9098 8.99557C15.9693 8.85176 16 8.69762 16 8.54195C16 8.38629 15.9693 8.23215 15.9098 8.08833C15.8502 7.94452 15.7629 7.81385 15.6528 7.70379ZM8.54158 14.815L1.1852 7.45861V1.1852H7.45861L14.815 8.54158L8.54158 14.815ZM4.7408 3.8519C4.7408 4.02771 4.68867 4.19957 4.59099 4.34575C4.49332 4.49192 4.35449 4.60586 4.19207 4.67314C4.02964 4.74041 3.85091 4.75802 3.67848 4.72372C3.50606 4.68942 3.34767 4.60476 3.22335 4.48045C3.09904 4.35613 3.01438 4.19775 2.98008 4.02532C2.94578 3.85289 2.96339 3.67416 3.03066 3.51173C3.09794 3.34931 3.21188 3.21048 3.35806 3.11281C3.50423 3.01513 3.67609 2.963 3.8519 2.963C4.08765 2.963 4.31375 3.05665 4.48045 3.22335C4.64715 3.39005 4.7408 3.61615 4.7408 3.8519Z" fill="white"/>
</svg>
