<svg width="15" height="14" viewBox="0 0 15 14" fill="none" xmlns="http://www.w3.org/2000/svg">
<path d="M13.8462 0H1.15385C0.847827 0 0.554342 0.121566 0.337954 0.337954C0.121566 0.554342 0 0.847827 0 1.15385V10.3846C0 10.6906 0.121566 10.9841 0.337954 11.2005C0.554342 11.4169 0.847827 11.5385 1.15385 11.5385H5.51178L6.49832 13.2649C6.59926 13.4415 6.74507 13.5882 6.92097 13.6902C7.09688 13.7923 7.29663 13.846 7.5 13.846C7.70337 13.846 7.90312 13.7923 8.07903 13.6902C8.25493 13.5882 8.40074 13.4415 8.50168 13.2649L9.48822 11.5385H13.8462C14.1522 11.5385 14.4457 11.4169 14.662 11.2005C14.8784 10.9841 15 10.6906 15 10.3846V1.15385C15 0.847827 14.8784 0.554342 14.662 0.337954C14.4457 0.121566 14.1522 0 13.8462 0ZM9.80769 7.5H5.19231C5.0393 7.5 4.89256 7.43922 4.78436 7.33102C4.67617 7.22283 4.61538 7.07609 4.61538 6.92308C4.61538 6.77007 4.67617 6.62332 4.78436 6.51513C4.89256 6.40694 5.0393 6.34615 5.19231 6.34615H9.80769C9.9607 6.34615 10.1074 6.40694 10.2156 6.51513C10.3238 6.62332 10.3846 6.77007 10.3846 6.92308C10.3846 7.07609 10.3238 7.22283 10.2156 7.33102C10.1074 7.43922 9.9607 7.5 9.80769 7.5ZM9.80769 5.19231H5.19231C5.0393 5.19231 4.89256 5.13152 4.78436 5.02333C4.67617 4.91514 4.61538 4.76839 4.61538 4.61538C4.61538 4.46238 4.67617 4.31563 4.78436 4.20744C4.89256 4.09924 5.0393 4.03846 5.19231 4.03846H9.80769C9.9607 4.03846 10.1074 4.09924 10.2156 4.20744C10.3238 4.31563 10.3846 4.46238 10.3846 4.61538C10.3846 4.76839 10.3238 4.91514 10.2156 5.02333C10.1074 5.13152 9.9607 5.19231 9.80769 5.19231Z" fill="white" fill-opacity="0.9"/>
</svg>
