<svg width="16" height="16" viewBox="0 0 16 16" fill="none" xmlns="http://www.w3.org/2000/svg">
<path d="M15.6528 7.70379L8.29639 0.347417C8.18673 0.236882 8.05619 0.149247 7.91237 0.0896062C7.76854 0.0299654 7.6143 -0.000491441 7.4586 5.99632e-06H0.592605C0.435438 5.99632e-06 0.284708 0.0624404 0.173574 0.173574C0.0624404 0.284708 5.99632e-06 0.435438 5.99632e-06 0.592605V7.4586C-0.000491441 7.6143 0.0299654 7.76854 0.0896062 7.91237C0.149247 8.05619 0.236882 8.18673 0.347417 8.29639L7.70379 15.6528C7.81385 15.7628 7.94451 15.8502 8.08833 15.9097C8.23214 15.9693 8.38628 16 8.54194 16C8.69761 16 8.85175 15.9693 8.99556 15.9097C9.13937 15.8502 9.27004 15.7628 9.3801 15.6528L15.6528 9.3801C15.7628 9.27004 15.8502 9.13937 15.9097 8.99556C15.9693 8.85175 16 8.69761 16 8.54194C16 8.38628 15.9693 8.23214 15.9097 8.08833C15.8502 7.94451 15.7628 7.81385 15.6528 7.70379ZM8.54157 14.815L1.1852 7.4586V1.1852H7.4586L14.815 8.54157L8.54157 14.815ZM4.74079 3.8519C4.74079 4.0277 4.68866 4.19956 4.59099 4.34574C4.49331 4.49192 4.35449 4.60585 4.19206 4.67313C4.02964 4.74041 3.85091 4.75801 3.67848 4.72371C3.50605 4.68942 3.34767 4.60476 3.22335 4.48044C3.09904 4.35613 3.01438 4.19774 2.98008 4.02531C2.94578 3.85288 2.96338 3.67415 3.03066 3.51173C3.09794 3.34931 3.21187 3.21048 3.35805 3.1128C3.50423 3.01513 3.67609 2.963 3.8519 2.963C4.08765 2.963 4.31374 3.05665 4.48044 3.22335C4.64714 3.39005 4.74079 3.61615 4.74079 3.8519Z" fill="white"/>
</svg>
