<svg width="15" height="16" viewBox="0 0 15 16" fill="none" xmlns="http://www.w3.org/2000/svg">
<path d="M14.2666 3.5817L7.97923 0.141512C7.81124 0.0486892 7.62245 0 7.43052 0C7.23858 0 7.04979 0.0486892 6.8818 0.141512L0.594441 3.58313C0.414886 3.68137 0.265 3.82602 0.160436 4.00197C0.0558719 4.17792 0.000464591 4.37871 0 4.58339V11.4166C0.000464591 11.6213 0.0558719 11.8221 0.160436 11.998C0.265 12.174 0.414886 12.3186 0.594441 12.4169L6.8818 15.8585C7.04979 15.9513 7.23858 16 7.43052 16C7.62245 16 7.81124 15.9513 7.97923 15.8585L14.2666 12.4169C14.4461 12.3186 14.596 12.174 14.7006 11.998C14.8052 11.8221 14.8606 11.6213 14.861 11.4166V4.5841C14.8609 4.37906 14.8057 4.17782 14.7011 4.00146C14.5966 3.8251 14.4465 3.68012 14.2666 3.5817ZM7.43052 1.14177L13.1706 4.28545L11.0436 5.45004L5.30282 2.30636L7.43052 1.14177ZM7.43052 7.42913L1.69044 4.28545L4.1125 2.95939L9.85258 6.10307L7.43052 7.42913ZM1.14316 5.28571L6.85894 8.41368V14.5431L1.14316 11.4173V5.28571ZM13.7179 11.4145L8.00209 14.5431V8.41653L10.2884 7.16549V9.71545C10.2884 9.86704 10.3486 10.0124 10.4558 10.1196C10.563 10.2268 10.7084 10.287 10.86 10.287C11.0116 10.287 11.157 10.2268 11.2642 10.1196C11.3713 10.0124 11.4316 9.86704 11.4316 9.71545V6.53961L13.7179 5.28571V11.4137V11.4145Z" fill="white"/>
</svg>
