<svg width="14" height="14" viewBox="0 0 14 14" fill="none" xmlns="http://www.w3.org/2000/svg">
<path d="M13.9388 2.65563L12.7721 0.322292C12.7236 0.225377 12.6491 0.143888 12.5568 0.0869617C12.4646 0.0300353 12.3584 -7.74378e-05 12.25 1.49553e-07H1.75C1.64163 -7.74378e-05 1.53538 0.0300353 1.44316 0.0869617C1.35095 0.143888 1.27641 0.225377 1.22792 0.322292L0.06125 2.65563C0.0210414 2.73677 8.20203e-05 2.8261 0 2.91667V12.8333C0 13.1428 0.122916 13.4395 0.341709 13.6583C0.560501 13.8771 0.857247 14 1.16667 14H12.8333C13.1428 14 13.4395 13.8771 13.6583 13.6583C13.8771 13.4395 14 13.1428 14 12.8333V2.91667C13.9999 2.8261 13.979 2.73677 13.9388 2.65563ZM9.74604 9.16271L7.41271 11.496C7.35853 11.5503 7.2942 11.5933 7.22338 11.6227C7.15257 11.652 7.07666 11.6671 7 11.6671C6.92334 11.6671 6.84743 11.652 6.77662 11.6227C6.7058 11.5933 6.64147 11.5503 6.58729 11.496L4.25396 9.16271C4.1445 9.05325 4.08301 8.9048 4.08301 8.75C4.08301 8.5952 4.1445 8.44675 4.25396 8.33729C4.36341 8.22783 4.51187 8.16634 4.66667 8.16634C4.82146 8.16634 4.96992 8.22783 5.07938 8.33729L6.41667 9.67531V5.25C6.41667 5.09529 6.47812 4.94692 6.58752 4.83752C6.69692 4.72812 6.84529 4.66667 7 4.66667C7.15471 4.66667 7.30308 4.72812 7.41248 4.83752C7.52188 4.94692 7.58333 5.09529 7.58333 5.25V9.67531L8.92062 8.33729C9.03008 8.22783 9.17854 8.16634 9.33333 8.16634C9.48813 8.16634 9.63659 8.22783 9.74604 8.33729C9.8555 8.44675 9.91699 8.5952 9.91699 8.75C9.91699 8.9048 9.8555 9.05325 9.74604 9.16271ZM1.52687 2.33333L2.11021 1.16667H11.8898L12.4731 2.33333H1.52687Z" fill="#0088FF"/>
</svg>
