<svg width="15" height="15" viewBox="0 0 15 15" fill="none" xmlns="http://www.w3.org/2000/svg">
<path d="M7.5 0C6.01664 0 4.5666 0.439867 3.33323 1.26398C2.09986 2.08809 1.13856 3.25943 0.570907 4.62987C0.00324963 6.00032 -0.145275 7.50832 0.144114 8.96318C0.433503 10.418 1.14781 11.7544 2.1967 12.8033C3.2456 13.8522 4.58197 14.5665 6.03683 14.8559C7.49168 15.1453 8.99968 14.9968 10.3701 14.4291C11.7406 13.8614 12.9119 12.9001 13.736 11.6668C14.5601 10.4334 15 8.98336 15 7.5C14.9979 5.51152 14.2071 3.60509 12.801 2.19902C11.3949 0.79295 9.48848 0.00209987 7.5 0ZM7.5 13.8462C6.24485 13.8462 5.01789 13.474 3.97427 12.7766C2.93065 12.0793 2.11725 11.0882 1.63692 9.92857C1.1566 8.76896 1.03092 7.49296 1.27579 6.26193C1.52066 5.03089 2.12507 3.90012 3.0126 3.01259C3.90012 2.12507 5.0309 1.52065 6.26193 1.27579C7.49296 1.03092 8.76896 1.15659 9.92857 1.63692C11.0882 2.11724 12.0793 2.93065 12.7766 3.97427C13.474 5.01789 13.8462 6.24485 13.8462 7.5C13.8442 9.18252 13.175 10.7956 11.9853 11.9853C10.7956 13.175 9.18252 13.8442 7.5 13.8462ZM12.1154 7.5C12.1154 7.65301 12.0546 7.79975 11.9464 7.90795C11.8382 8.01614 11.6915 8.07692 11.5385 8.07692H7.5C7.34699 8.07692 7.20025 8.01614 7.09206 7.90795C6.98386 7.79975 6.92308 7.65301 6.92308 7.5V3.46154C6.92308 3.30853 6.98386 3.16179 7.09206 3.05359C7.20025 2.9454 7.34699 2.88462 7.5 2.88462C7.65301 2.88462 7.79976 2.9454 7.90795 3.05359C8.01614 3.16179 8.07693 3.30853 8.07693 3.46154V6.92308H11.5385C11.6915 6.92308 11.8382 6.98386 11.9464 7.09205C12.0546 7.20025 12.1154 7.34699 12.1154 7.5Z" fill="white"/>
</svg>
