<svg width="18" height="18" viewBox="0 0 18 18" fill="none" xmlns="http://www.w3.org/2000/svg">
<g opacity="0.5">
<path d="M15.7275 4.65118L9.54 1.26564C9.37468 1.17429 9.18888 1.12637 9 1.12637C8.81112 1.12637 8.62532 1.17429 8.46 1.26564L2.2725 4.65259C2.0958 4.74927 1.94829 4.89163 1.84539 5.06478C1.74248 5.23794 1.68796 5.43554 1.6875 5.63697V12.3617C1.68796 12.5631 1.74248 12.7607 1.84539 12.9338C1.94829 13.107 2.0958 13.2493 2.2725 13.346L8.46 16.733C8.62532 16.8243 8.81112 16.8722 9 16.8722C9.18888 16.8722 9.37468 16.8243 9.54 16.733L15.7275 13.346C15.9042 13.2493 16.0517 13.107 16.1546 12.9338C16.2575 12.7607 16.312 12.5631 16.3125 12.3617V5.63767C16.3124 5.43589 16.2581 5.23784 16.1551 5.06428C16.0522 4.89072 15.9045 4.74804 15.7275 4.65118ZM9 2.25001L14.6489 5.34376L12.5557 6.48986L6.90609 3.39611L9 2.25001ZM9 8.43751L3.35109 5.34376L5.73469 4.03876L11.3836 7.13251L9 8.43751ZM2.8125 6.32814L8.4375 9.40642V15.4385L2.8125 12.3624V6.32814ZM15.1875 12.3595L9.5625 15.4385V9.40923L11.8125 8.17806V10.6875C11.8125 10.8367 11.8718 10.9798 11.9773 11.0853C12.0827 11.1908 12.2258 11.25 12.375 11.25C12.5242 11.25 12.6673 11.1908 12.7727 11.0853C12.8782 10.9798 12.9375 10.8367 12.9375 10.6875V7.56212L15.1875 6.32814V12.3588V12.3595Z" fill="white"/>
</g>
</svg>
