<svg width="18" height="18" viewBox="0 0 18 18" fill="none" xmlns="http://www.w3.org/2000/svg">
<g opacity="0.5">
<path d="M17.1077 9.56251L10.125 2.57977C10.0209 2.47485 9.89701 2.39167 9.76049 2.33506C9.62397 2.27844 9.47756 2.24953 9.32977 2.25001H2.81251C2.66332 2.25001 2.52025 2.30927 2.41476 2.41476C2.30927 2.52025 2.25001 2.66332 2.25001 2.81251V9.32977C2.24953 9.47756 2.27844 9.62397 2.33506 9.76049C2.39167 9.89701 2.47485 10.0209 2.57977 10.125L9.56251 17.1077C9.66698 17.2122 9.79101 17.2951 9.92751 17.3517C10.064 17.4082 10.2103 17.4373 10.3581 17.4373C10.5059 17.4373 10.6522 17.4082 10.7887 17.3517C10.9252 17.2951 11.0492 17.2122 11.1537 17.1077L17.1077 11.1537C17.2122 11.0492 17.2951 10.9252 17.3517 10.7887C17.4082 10.6522 17.4373 10.5059 17.4373 10.3581C17.4373 10.2103 17.4082 10.064 17.3517 9.92751C17.2951 9.79101 17.2122 9.66698 17.1077 9.56251ZM10.3577 16.3125L3.37501 9.32977V3.37501H9.32977L16.3125 10.3577L10.3577 16.3125ZM6.75001 5.90626C6.75001 6.07313 6.70052 6.23626 6.60781 6.37502C6.5151 6.51377 6.38332 6.62192 6.22914 6.68578C6.07497 6.74964 5.90532 6.76635 5.74165 6.73379C5.57798 6.70124 5.42763 6.62088 5.30963 6.50288C5.19163 6.38488 5.11127 6.23453 5.07872 6.07086C5.04616 5.90719 5.06287 5.73754 5.12673 5.58337C5.19059 5.42919 5.29874 5.29742 5.43749 5.2047C5.57625 5.11199 5.73938 5.06251 5.90626 5.06251C6.13003 5.06251 6.34464 5.1514 6.50288 5.30963C6.66111 5.46787 6.75001 5.68248 6.75001 5.90626Z" fill="white"/>
</g>
</svg>
