<svg width="20" height="20" viewBox="0 0 20 20" fill="none" xmlns="http://www.w3.org/2000/svg">
<path d="M16.25 10C16.2498 9.0188 16.0184 8.05145 15.5745 7.17638C15.1307 6.3013 14.4869 5.54312 13.6953 4.96328L13.2078 2.27734C13.1556 1.98918 13.004 1.72848 12.7792 1.54072C12.5545 1.35297 12.271 1.25008 11.9781 1.25H8.02187C7.72903 1.25008 7.4455 1.35297 7.22077 1.54072C6.99603 1.72848 6.84435 1.98918 6.79219 2.27734L6.30469 4.96328C5.51292 5.54292 4.86896 6.30106 4.42506 7.17618C3.98116 8.0513 3.74982 9.01874 3.74982 10C3.74982 10.9813 3.98116 11.9487 4.42506 12.8238C4.86896 13.6989 5.51292 14.4571 6.30469 15.0367L6.79219 17.7227C6.84435 18.0108 6.99603 18.2715 7.22077 18.4593C7.4455 18.647 7.72903 18.7499 8.02187 18.75H11.9781C12.271 18.7499 12.5545 18.647 12.7792 18.4593C13.004 18.2715 13.1556 18.0108 13.2078 17.7227L13.6953 15.0367C14.4869 14.4569 15.1307 13.6987 15.5745 12.8236C16.0184 11.9485 16.2498 10.9812 16.25 10ZM8.02187 2.5H11.9781L12.2836 4.18359C10.8161 3.60549 9.18392 3.60549 7.71641 4.18359L8.02187 2.5ZM5 10C5 9.01109 5.29324 8.04439 5.84265 7.22215C6.39206 6.3999 7.17295 5.75904 8.08658 5.3806C9.00021 5.00216 10.0055 4.90315 10.9755 5.09607C11.9454 5.289 12.8363 5.7652 13.5355 6.46447C14.2348 7.16373 14.711 8.05464 14.9039 9.02455C15.0969 9.99445 14.9978 10.9998 14.6194 11.9134C14.241 12.827 13.6001 13.6079 12.7779 14.1573C11.9556 14.7068 10.9889 15 10 15C8.67436 14.9986 7.40343 14.4713 6.46606 13.5339C5.5287 12.5966 5.00145 11.3256 5 10ZM11.9781 17.5H8.02187L7.71641 15.8164C9.18392 16.3945 10.8161 16.3945 12.2836 15.8164L11.9781 17.5ZM9.375 10V6.875C9.375 6.70924 9.44085 6.55027 9.55806 6.43306C9.67527 6.31585 9.83424 6.25 10 6.25C10.1658 6.25 10.3247 6.31585 10.4419 6.43306C10.5592 6.55027 10.625 6.70924 10.625 6.875V9.375H13.125C13.2908 9.375 13.4497 9.44085 13.5669 9.55806C13.6842 9.67527 13.75 9.83424 13.75 10C13.75 10.1658 13.6842 10.3247 13.5669 10.4419C13.4497 10.5592 13.2908 10.625 13.125 10.625H10C9.83424 10.625 9.67527 10.5592 9.55806 10.4419C9.44085 10.3247 9.375 10.1658 9.375 10Z" fill="white" fill-opacity="0.9"/>
</svg>
